<?xml version="1.0" encoding="UTF-8"?>
<svg id="_レイヤー_1" data-name="レイヤー 1" xmlns="http://www.w3.org/2000/svg" viewBox="0 0 498.19 367.85">
  <defs>
    <style>
      .cls-1 {
        fill: #fff;
      }

      .cls-2 {
        fill: #3b4e9b;
      }

      .cls-3 {
        fill: #352dff;
      }
    </style>
  </defs>
  <g>
    <path class="cls-3" d="M467.39,314.87c0,.75-.03,1.5-.07,2.24-.07,1.07-.61,3.54,.15-.5-.27,1.43-.51,2.85-.9,4.25-.19,.69-.41,1.37-.64,2.05-.37,1.06-1.55,2.92,.26-.44-.67,1.24-1.21,2.54-1.93,3.76-.36,.6-.74,1.2-1.13,1.78-.63,.92-2.22,2.35,.36-.36-.96,1.01-1.81,2.13-2.81,3.11-.5,.49-1.01,.96-1.54,1.42-.86,.75-2.72,1.65,.44-.27-1.2,.73-2.3,1.6-3.52,2.3-.61,.35-1.24,.68-1.87,.99-1.06,.52-3.04,.84,.5-.15-1.37,.38-2.69,.97-4.08,1.33-.7,.18-1.41,.34-2.12,.48-.54,.1-2.84,.44-.5,.12s-.29-.02-.86,.01c-.64,.04-1.28,.05-1.93,.05-.2,0-.4,0-.6,0-4.24,0-8.49,0-12.73,0-8.96,0-17.92,0-26.87,0-12.55,0-25.09,0-37.64,0H220.12c-16.51,0-33.02,0-49.53,0-14.93,0-29.86,0-44.79,0-12.21,0-24.42,0-36.63,0-8.43,0-16.85,0-25.28,0-3.58,0-7.16,.02-10.74,0-.05,0-.11,0-.16,0-1.18,0-2.34-.12-3.51-.18-1.29-.07,1.92,.32,1.77,.26-.31-.13-.88-.14-1.23-.2-.81-.15-1.62-.33-2.42-.54-1.29-.34-2.52-.85-3.79-1.22s1.87,.73,1.59,.68c-.31-.05-.79-.36-1.1-.51-.73-.35-1.44-.72-2.14-1.12-1.14-.65-2.17-1.44-3.28-2.13s1.6,1.16,1.34,1.05c-.28-.12-.67-.55-.92-.76-.61-.52-1.2-1.06-1.77-1.62-.93-.91-1.73-1.93-2.62-2.88s1.26,1.51,1.04,1.35-.52-.71-.7-.98c-.46-.66-.89-1.34-1.3-2.03-.67-1.13-1.16-2.35-1.81-3.49s.86,1.81,.67,1.59c-.18-.2-.33-.85-.43-1.14-.27-.77-.52-1.55-.74-2.34-.36-1.3-.6-2.62-.85-3.94-.23-1.23,.2,1.88,.24,1.77,.08-.2-.09-.98-.12-1.26-.06-.85-.09-1.71-.09-2.56,0-.07,0-.14,0-.21-.03-5.07,0-10.13,0-15.2,0-11.47,0-22.93,0-34.4,0-15.48,0-30.95,0-46.43,0-17.1,0-34.19,0-51.29,0-16.26,0-32.52,0-48.78,0-13.19,0-26.38,0-39.58,0-7.66,0-15.32,0-22.98,0-1.44-.03-2.88,.02-4.32,.03-.74,.11-1.48,.15-2.22,.07-1.39-.24,2.05-.26,1.77-.02-.34,.15-.93,.2-1.23,.26-1.42,.61-2.82,1.05-4.2,.22-.68,.51-1.34,.71-2.02,.38-1.29-.73,1.87-.68,1.59,.04-.25,.26-.6,.38-.83,.67-1.36,1.37-2.68,2.19-3.96,.38-.59,.82-1.14,1.19-1.73,.7-1.13-1.15,1.6-1.05,1.34,.09-.23,.41-.51,.57-.69,.99-1.13,2-2.23,3.1-3.24,.51-.47,1.08-.89,1.59-1.37,.97-.9-1.51,1.26-1.35,1.04,.14-.19,.53-.4,.73-.53,1.25-.84,2.51-1.65,3.85-2.35,.63-.33,1.28-.6,1.91-.93,1.18-.62-1.8,.85-1.59,.67,.17-.15,.64-.25,.86-.33,1.46-.5,2.91-.96,4.43-1.3,.71-.16,1.43-.27,2.14-.4,1.21-.23-1.87,.2-1.77,.24,.17,.08,.75-.07,.95-.09,.96-.08,1.92-.11,2.88-.12,.23,0,.45,0,.68,0,1.52,0,3.03,0,4.55,0,6.82,0,13.63,0,20.45,0,10.92,0,21.85,0,32.77,0,14.07,0,28.14,0,42.21,0,16.11,0,32.22,0,48.33,0,17.09,0,34.18,0,51.27,0s33.86,0,50.79,0c15.86,0,31.72,0,47.59,0,13.65,0,27.31,0,40.96,0,10.38,0,20.77,0,31.15,0,6.05,0,12.1,0,18.15,0,1.07,0,2.13,0,3.2,0,.26,0,.51,0,.77,0,.64,.01,1.28,.04,1.92,.09,.2,.01,1.03,0,1.26,.12s-3.11-.49-1.77-.24c1.53,.29,3.04,.58,4.54,1.02,.59,.17,1.17,.37,1.75,.57,.29,.1,.94,.25,1.14,.43,.22,.19-2.76-1.34-1.59-.67,1.31,.75,2.71,1.32,4,2.12,.51,.32,1.02,.65,1.51,.99,.26,.18,.81,.47,.98,.7s-2.3-1.98-1.35-1.04c1.06,1.06,2.26,1.96,3.3,3.05,.41,.43,.81,.88,1.2,1.33,.21,.25,.65,.65,.76,.92s-1.71-2.5-1.05-1.34c.74,1.3,1.69,2.48,2.42,3.81,.29,.53,.57,1.07,.83,1.61,.15,.31,.45,.79,.51,1.1,.05,.28-1.07-2.88-.68-1.59,.44,1.47,1.01,2.89,1.37,4.39,.15,.6,.27,1.21,.39,1.82,.07,.36,.07,.92,.2,1.23,.06,.15-.32-3.06-.26-1.77,.06,1.17,.17,2.34,.18,3.51,0,.09,0,.18,0,.27,0,1.65,0,3.31,0,4.96,0,8.68,0,17.36,0,26.04v41.52c0,16.61,0,33.23,0,49.84v50.77c0,15.01,0,30.01,0,45.02,0,10.62,0,21.25,0,31.87v11.58c0,6.55,5.76,12.83,12.53,12.53,6.79-.3,12.53-5.51,12.53-12.53v-45.6c0-15.32,0-30.64,0-45.96,0-17.28,0-34.55,0-51.83,0-16.62,0-33.23,0-49.85s0-27.15,0-40.73c0-8.09,0-16.17,0-24.26,0-1.22,0-2.43,0-3.65-.1-13.5-5.97-27.18-16.51-35.82-8.85-7.26-19.38-11.36-30.9-11.43-1.13,0-2.27,0-3.4,0-6.27,0-12.54,0-18.81,0-10.63,0-21.26,0-31.89,0-13.91,0-27.82,0-41.73,0-16.1,0-32.2,0-48.3,0-17.2,0-34.39,0-51.59,0s-34.4,0-51.6,0c-16.11,0-32.23,0-48.34,0-13.99,0-27.98,0-41.97,0-10.65,0-21.29,0-31.94,0-6.28,0-12.55,0-18.83,0-1.16,0-2.32,0-3.48,0-11.34,.07-21.66,4.03-30.45,11.06C11.9,25.44,5.84,39.27,5.74,52.99c0,1.18,0,2.36,0,3.54,0,8.03,0,16.05,0,24.08,0,13.61,0,27.22,0,40.82,0,16.61,0,33.22,0,49.82s0,34.41,0,51.61,0,30.7,0,46.05c0,11.04,0,22.08,0,33.12s-.03,8.56,0,12.84c.11,14.66,6.9,28.4,18.48,37.35,8.33,6.44,18.43,9.84,28.97,9.89,3.73,.02,7.46,0,11.19,0,8.68,0,17.37,0,26.05,0,12.46,0,24.93,0,37.39,0,15.18,0,30.36,0,45.54,0h102.42c16.77,0,33.55,0,50.32,0,15.18,0,30.37,0,45.55,0,12.36,0,24.72,0,37.09,0h25.56c3.59,0,7.17,.02,10.76,0,11.23-.07,21.42-3.98,30.17-10.87,10.97-8.64,17.09-22.54,17.21-36.37,.06-6.56-5.81-12.83-12.53-12.53s-12.47,5.5-12.53,12.53Z"/>
    <g>
      <path class="cls-1" d="M445.2,355.32H52.98c-22.3,0-40.44-18.14-40.44-40.44V52.99C12.54,30.69,30.68,12.54,52.98,12.54H445.2c22.3,0,40.44,18.14,40.44,40.44V314.87c0,22.3-18.14,40.44-40.44,40.44ZM52.98,24c-15.98,0-28.99,13-28.99,28.99V314.87c0,15.98,13,28.99,28.99,28.99H445.2c15.98,0,28.99-13,28.99-28.99V52.99c0-15.98-13-28.99-28.99-28.99H52.98Z"/>
      <g>
        <path class="cls-3" d="M445.2,342.79h-8.73c-8,0-16,0-24,0-11.99,0-23.98,0-35.97,0h-44.65c-16.67,0-33.35,0-50.02,0-17.36,0-34.73,0-52.09,0h-97.22c-12.84,0-25.68,0-38.53,0-9.14,0-18.27,0-27.41,0-4.33,0-8.66,0-12.99,0-.2,0-.41,0-.61,0-1.22,0-2.43-.06-3.64-.16-2.94-.26,2.5,.46,.42,.08-.85-.15-1.69-.3-2.53-.5-1.35-.31-2.68-.69-3.99-1.14-.42-.14-1.69-.86-2.07-.77-.03,0,2.58,1.2,1.55,.64-.37-.2-.76-.35-1.14-.54-1.22-.6-2.41-1.25-3.56-1.97-.62-.38-1.22-.79-1.82-1.2-.26-.18-.5-.37-.76-.54-1.88-1.3,1.79,1.56,.82,.62-2.02-1.94-3.92-3.98-5.9-5.94,2.54,2.51,.94,1.25,.28,.3-.42-.6-.82-1.2-1.2-1.82-.77-1.24-1.48-2.52-2.11-3.84-.14-.28-.25-.58-.4-.86-.69-1.36,1.05,2.69,.53,1.25-.22-.59-.45-1.18-.66-1.78-.52-1.51-.95-3.05-1.28-4.61-.13-.63-.24-1.27-.36-1.9-.37-2.03,.33,3.17,.08,.42-.11-1.21-.16-2.43-.16-3.64,0-.09,0-.18,0-.27,0-.59,0-1.17,0-1.76v-8.14c0-10.4,0-20.8,0-31.2,0-15,0-30,0-45.01s0-34.28,0-51.43c0-16.82,0-33.64,0-50.46,0-14.03,0-28.06,0-42.1,0-8.76,0-17.52,0-26.28,0-1.67,0-3.35,0-5.03,0-.08,0-.16,0-.24,0-1.33,.09-2.64,.19-3.97,.16-2.2-.5,2.9-.11,.75,.15-.85,.31-1.69,.5-2.53,.33-1.45,.75-2.88,1.24-4.29,.12-.34,.76-1.46,.67-1.77,0-.02-1.2,2.58-.64,1.55,.25-.46,.44-.95,.67-1.42,.61-1.21,1.27-2.39,2-3.54,.39-.62,.79-1.22,1.21-1.81,.18-.25,.38-.5,.55-.75,.76-1.13-2.14,2.53-.61,.82,.9-1.01,1.77-2.02,2.73-2.97,.44-.44,.9-.86,1.36-1.28,.37-.33,2.73-2.24,.88-.82s.26-.17,.74-.5c.51-.35,1.04-.69,1.57-1.02,1.33-.83,2.72-1.54,4.12-2.24,.24-.12,.59-.34,.86-.39,.24-.04-2.81,1.11-1.54,.65,.7-.25,1.38-.53,2.08-.76,1.41-.47,2.86-.86,4.31-1.18,.74-.16,1.48-.27,2.23-.41,1.36-.26-1.95,.32-1.72,.23,.32-.12,1-.1,1.31-.13,1.1-.09,2.21-.13,3.32-.13,.8,0,1.59,0,2.39,0h17.02c10.2,0,20.39,0,30.59,0,13.62,0,27.24,0,40.86,0,15.94,0,31.89,0,47.83,0,17.17,0,34.33,0,51.5,0,17.29,0,34.58,0,51.88,0,16.32,0,32.63,0,48.95,0,14.24,0,28.48,0,42.73,0,11.07,0,22.13,0,33.2,0,6.79,0,13.59,0,20.38,0,1.45,0,2.91,0,4.36,0,.4,0,.8,0,1.19,0,.66,.01,1.33,.04,1.99,.08,.5,.03,3.36,.37,.94,.04s.3,.07,.9,.19c.84,.17,1.68,.36,2.5,.58,1.33,.35,2.65,.77,3.93,1.26,.15,.06,.74,.39,.88,.34,.02,0-2.58-1.2-1.55-.64,.74,.39,1.52,.71,2.26,1.1,1.2,.63,2.36,1.33,3.49,2.08,.61,.4,1.18,.85,1.78,1.26,1.11,.74-1.53-1.11-1.31-1.01,.43,.19,.84,.7,1.19,1,1.02,.88,1.99,1.82,2.91,2.8,.5,.53,.97,1.08,1.45,1.62,1.71,1.94-1.32-1.91-.23-.34,.83,1.2,1.66,2.39,2.39,3.65,.66,1.13,1.76,2.63,1.99,3.91,.04,.24-1.11-2.81-.65-1.54,.14,.4,.3,.79,.45,1.18,.22,.6,.42,1.2,.6,1.81,.47,1.53,.85,3.09,1.14,4.67,.06,.32,.1,.64,.16,.96,.26,1.36-.32-1.95-.23-1.72,.25,.65,.15,1.59,.19,2.29,.04,.78,.06,1.56,.07,2.34,0,.11,0,.22,0,.33,0,.63,0,1.25,0,1.88v21.86c0,13.08,0,26.16,0,39.24,0,16.41,0,32.83,0,49.24v51.85c0,15.69,0,31.38,0,47.07v34.9c0,5.11,.03,10.23,0,15.34,0,.17,0,.34,0,.51,0,.77-.03,1.55-.08,2.32-.04,.56-.37,3.37-.04,.94s-.03,.05-.13,.58c-.14,.74-.3,1.47-.48,2.2-.33,1.34-.73,2.66-1.2,3.96-.11,.3-.22,.59-.33,.89-.68,1.87,.53-1.21,.54-1.25-.1,.55-.55,1.2-.8,1.71-.65,1.31-1.38,2.58-2.17,3.8-.34,.52-.69,1.04-1.05,1.55-.23,.32-.47,.73-.74,1-.17,.17,1.91-2.27,1-1.31s-1.76,2.04-2.71,2.99c-.85,.85-2.11,2.41-3.23,2.91-.22,.1,2.41-1.75,1.31-1.01-.26,.17-.5,.37-.75,.55-.59,.42-1.2,.83-1.81,1.21-1.15,.72-2.33,1.39-3.54,2-.48,.24-2.97,1.33-.79,.42s-.07,0-.56,.18c-1.3,.47-2.62,.87-3.96,1.2-.73,.18-1.46,.34-2.2,.48-.32,.06-.64,.11-.96,.17-2,.37,1.33-.24,1.4-.18-.19-.16-1.67,.16-1.96,.18-.88,.06-1.77,.08-2.66,.09-6.55,.05-12.83,5.72-12.53,12.53s5.51,12.59,12.53,12.53c14.49-.12,28.91-6.11,38.73-16.88,9.05-9.91,14.16-22.69,14.24-36.13,.03-4.73,0-9.46,0-14.19,0-11.49,0-22.98,0-34.47,0-15.72,0-31.45,0-47.17,0-17.5,0-35.01,0-52.51,0-16.59,0-33.18,0-49.77s0-26.44,0-39.66c0-7.33,0-14.67,0-22,0-4.24-.33-8.4-1.09-12.6-2.54-14.13-11.8-26.66-23.75-34.34C463.64,1.88,452.54,.01,441.26,.01c-6.5,0-13,0-19.5,0-10.98,0-21.97,0-32.95,0-14.24,0-28.47,0-42.71,0-16.4,0-32.8,0-49.2,0-17.51,0-35.02,0-52.54,0s-34.67,0-52,0c-16.1,0-32.21,0-48.31,0-13.8,0-27.59,0-41.39,0-10.23,0-20.47,0-30.7,0-5.61,0-11.22,0-16.83,0-15.72,0-31.26,5.63-41.71,17.81C4.92,27.73,.09,39.93,0,53.05,0,54.48,0,55.91,0,57.34c0,8.53,0,17.06,0,25.6,0,14.06,0,28.12,0,42.18s0,33.85,0,50.78,0,34.62,0,51.93,0,30.45,0,45.68c0,10.46,0,20.93,0,31.39s-.21,14.5,1.34,21.76c5.12,24.03,27.71,41.12,51.94,41.19,3.97,.01,7.95,0,11.92,0,8.94,0,17.89,0,26.83,0h38.35c15.57,0,31.13,0,46.7,0,17.08,0,34.16,0,51.23,0,17.52,0,35.05,0,52.57,0,16.91,0,33.82,0,50.74,0h45.05c12.07,0,24.14,0,36.2,0h32.32c6.55,0,12.83-5.76,12.53-12.53-.3-6.79-5.51-12.53-12.53-12.53Z"/>
        <path class="cls-3" d="M52.98,11.47c-15.02,.16-29.72,8.5-36.65,22.04-3.3,6.45-4.87,13.31-4.87,20.54,0,6.24,0,12.48,0,18.71s0,24.43,0,36.64c0,15.83,0,31.65,0,47.48,0,17,0,34,0,51,0,15.97,0,31.94,0,47.91,0,12.5,0,25,0,37.51,0,6.67,0,13.34,0,20.01s.49,10.28,2.29,15.06c5.21,13.87,17.14,25.18,32.17,27.33,4.94,.71,9.62,.69,14.58,.69,7.53,0,15.05,0,22.58,0,11.5,0,23,0,34.51,0,14.42,0,28.84,0,43.27,0,16.21,0,32.43,0,48.64,0,17.1,0,34.19,0,51.29,0,16.86,0,33.72,0,50.57,0,15.56,0,31.13,0,46.69,0,13.21,0,26.43,0,39.64,0,9.81,0,19.62,0,29.43,0,5.35,0,10.7,0,16.05,0,1.09,0,2.19,.02,3.28-.03,14.93-.63,29.49-9.32,35.91-23.08,2.92-6.25,4.35-12.71,4.35-19.61,0-2.31,0-4.61,0-6.92,0-9.58,0-19.17,0-28.75,0-14.37,0-28.74,0-43.11,0-16.76,0-33.53,0-50.29s0-33.59,0-50.39v-43.39c0-9.77,0-19.53,0-29.3s.31-15.7-2.73-23.15c-3.21-7.87-8.01-14.13-14.84-19.21-6.1-4.54-13.35-6.77-20.83-7.53-1.65-.17-3.28-.17-4.93-.17h-15.66c-9.71,0-19.41,0-29.12,0-13.14,0-26.28,0-39.41,0-15.52,0-31.03,0-46.55,0-16.84,0-33.67,0-50.51,0-17.1,0-34.21,0-51.31,0h-48.95c-14.47,0-28.95,0-43.42,0-11.53,0-23.07,0-34.6,0-7.64,0-15.29,0-22.93,0h-7.94c-6.55,0-12.83,5.76-12.53,12.53s5.51,12.53,12.53,12.53H430.24c4.84,0,9.69-.01,14.53,0,1.39,0,2.77,.08,4.15,.24l-3.33-.45c1.61,.22,3.19,.55,4.74,1.02,.67,.2,1.31,.49,1.98,.69,.92,.36,.38,.13-1.62-.69,.36,.16,.72,.33,1.07,.51,1.42,.71,2.72,1.55,4.03,2.44,1.74,1.18-2.34-2.02-.69-.51,.58,.53,1.17,1.04,1.72,1.59s1.06,1.15,1.59,1.72c1.54,1.66-1.77-2.57-.51-.69,.88,1.31,1.73,2.61,2.44,4.03,.18,.35,.35,.71,.51,1.07l-.8-1.9c.42,.47,.61,1.65,.79,2.26,.48,1.55,.8,3.14,1.02,4.74l-.45-3.33c.39,3.32,.24,6.73,.24,10.07v224.34c0,10.32,.07,20.65,0,30.98,0,1.32-.08,2.64-.24,3.95l.45-3.33c-.22,1.61-.55,3.19-1.02,4.74-.2,.67-.49,1.31-.69,1.98-.36,.92-.13,.38,.69-1.62-.16,.36-.33,.72-.51,1.07-.71,1.42-1.55,2.72-2.44,4.03-1.18,1.74,2.02-2.34,.51-.69-.53,.58-1.04,1.17-1.59,1.72s-1.15,1.06-1.72,1.59c-1.66,1.54,2.57-1.77,.69-.51-1.31,.88-2.61,1.73-4.03,2.44-.35,.18-.71,.35-1.07,.51l1.9-.8c-.47,.42-1.65,.61-2.26,.79-1.55,.48-3.14,.8-4.74,1.02l3.33-.45c-4.43,.52-9.04,.24-13.49,.24H68.04c-4.87,0-9.74,.01-14.61,0-1.39,0-2.78-.07-4.17-.24l3.33,.45c-1.61-.22-3.19-.55-4.74-1.02-.67-.2-1.31-.49-1.98-.69-.92-.36-.38-.13,1.62,.69-.36-.16-.72-.33-1.07-.51-1.42-.71-2.72-1.55-4.03-2.44-1.74-1.18,2.34,2.02,.69,.51-.58-.53-1.17-1.04-1.72-1.59s-1.06-1.15-1.59-1.72c-1.54-1.66,1.77,2.57,.51,.69-.88-1.31-1.73-2.61-2.44-4.03-.18-.35-.35-.71-.51-1.07l.8,1.9c-.42-.47-.61-1.65-.79-2.26-.48-1.55-.8-3.14-1.02-4.74l.45,3.33c-.39-3.32-.24-6.73-.24-10.07V84.19c0-10.32-.07-20.65,0-30.98,0-1.32,.08-2.64,.24-3.95l-.45,3.33c.22-1.61,.55-3.19,1.02-4.74,.2-.67,.49-1.31,.69-1.98,.36-.92,.13-.38-.69,1.62,.16-.36,.33-.72,.51-1.07,.71-1.42,1.55-2.72,2.44-4.03,1.18-1.74-2.02,2.34-.51,.69,.53-.58,1.04-1.17,1.59-1.72s1.15-1.06,1.72-1.59c1.66-1.54-2.57,1.77-.69,.51,1.31-.88,2.61-1.73,4.03-2.44,.35-.18,.71-.35,1.07-.51l-1.9,.8c.47-.42,1.65-.61,2.26-.79,1.55-.48,3.14-.8,4.74-1.02l-3.33,.45c1.24-.15,2.48-.22,3.72-.24,6.55-.07,12.84-5.71,12.53-12.53s-5.51-12.6-12.53-12.53Z"/>
      </g>
    </g>
  </g>
  <g>
    <path class="cls-1" d="M468.73,45.95c-6.86,6.08-13.72,12.16-20.58,18.25l-48.54,43.04c-18.85,16.71-37.7,33.42-56.55,50.13-15.01,13.31-30.02,26.62-45.04,39.93-4.04,3.59-8.09,7.17-12.13,10.76-.76,.68-1.52,1.35-2.29,2.03-.05,.04-.1,.09-.15,.13-.29,.26-.58,.52-.87,.77-.44,.38-.89,.76-1.34,1.14-.44,.37-.89,.73-1.34,1.09-1.07,.84-.89,.7,.54-.41-.31,.81-2.59,1.86-3.31,2.34-1.08,.72-2.17,1.41-3.28,2.06s-2.15,1.23-3.25,1.79c-.64,.33-1.29,.65-1.94,.95-.88,.41-3.07,1.01,.43-.13-4.34,1.42-8.44,2.9-13,3.56l3.33-.45c-4.72,.63-9.46,.63-14.19,.02l3.33,.45c-4.87-.68-9.52-2.03-14.1-3.79-1.48-.57,3.31,1.45,.87,.36-.41-.18-.82-.37-1.23-.56-1.04-.49-2.07-1.01-3.09-1.55-1.67-.89-3.29-1.84-4.88-2.86-1.32-.85-2.62-1.74-3.88-2.67-.26-.19-.51-.39-.77-.58-.57-.41,3.05,2.49,1.63,1.26-1.01-.88-2.04-1.74-3.05-2.61-3.82-3.29-7.64-6.58-11.47-9.87-17.58-15.13-35.15-30.27-52.72-45.41-18.14-15.64-36.27-31.28-54.38-46.95-14.75-12.75-29.49-25.51-44.18-38.32-7.28-6.35-14.95-12.49-21.8-19.31-.29-.29-.56-.6-.85-.89-1.52-1.5,.48,.44,.51,.76-.05-.58-.99-1.5-1.29-2.07-1.23-2.33,.59,2.3,.16,.36-.17-.77-.39-1.51-.51-2.29l.45,3.33c-.18-1.46-.16-2.89,.03-4.35l-.45,3.33c.14-.84,.32-1.67,.56-2.49,.12-.39,.29-.77,.39-1.16,.3-1.14-1.54,3.14-.63,1.47,.62-1.15,1.18-2.3,1.91-3.39,.27-.4,.56-.77,.83-1.16-2.68,3.84-1.88,2.39-1.13,1.51,1.22-1.44,2.32-2.98,3.4-4.53s-.78,.9-.76,.97c-.04-.13,.92-1.08,1.07-1.25,.73-.82,1.5-1.59,2.3-2.34,.4-.37,.82-.73,1.23-1.09,1.58-1.38-1.96,1.39-.73,.54,.81-.56,1.62-1.14,2.46-1.65,.94-.57,1.91-1.1,2.9-1.59,.45-.22,2.35-1.05,.33-.18s.03,.03,.37-.09c2.14-.75,4.34-1.26,6.59-1.6l-3.33,.45c4.76-.62,9.71-.34,14.5-.34H433.52c4.83,0,9.65-.01,14.48,0,1.76,0,3.51,.11,5.26,.34l-3.33-.45c1.57,.24,3.12,.54,4.65,.98,.64,.18,1.28,.39,1.92,.61,.42,.15,.84,.3,1.25,.46l-1.76-.75c1.41,.43,2.85,1.37,4.1,2.13,.56,.34,1.11,.7,1.66,1.07,.36,.25,.72,.5,1.07,.76-1.57-1.24-1.99-1.55-1.25-.95,1.07,.94,2.13,1.86,3.12,2.89,.45,.47,.89,.96,1.31,1.46,.28,.33,.56,.67,.83,1.01-1.21-1.59-1.54-2-.98-1.22,.89,1.35,1.87,2.63,2.88,3.89-.41-.51-2.19-2.66-.91-.91-1.85-2.54-.95-2.51-.56-1.14,.19,.66,.31,1.34,.41,2.02l-.45-3.33c.25,2.14,.17,4.27-.09,6.41l.45-3.33c-.4,2.95-1.06,5.92-2.07,8.72-2.24,6.17,2.51,13.99,8.75,15.41,7.06,1.61,13.01-2.14,15.41-8.75,1.9-5.23,3.02-11.35,2.75-16.88-.12-2.47-.36-5.06-1.15-7.42-.52-1.57-1.12-3.15-1.94-4.58-.2-.35-.41-.69-.64-1.03l-1.96-2.54c1.4,1.81,1.71,2.16,.93,1.06-3.3-4.8-7.08-8.56-11.7-12.05-8.15-6.17-18.41-8.97-28.55-8.97H88.92c-9.36,0-18.72,0-28.08,0-1.53,0-3.06-.01-4.59,0-7.96,.06-15.7,2.04-22.72,5.78-4.37,2.33-8.5,5.54-11.84,9.19-.59,.65-1.15,1.32-1.7,2,.93-1.16-3.5,4.67-3.5,4.67-.11-.03,2.07-2.5,1.45-1.82-.19,.2-.36,.42-.54,.63-5.17,6.21-9.12,14.1-8.6,22.4s4.32,15.4,10.4,20.98c4.25,3.9,8.62,7.68,12.96,11.49,17.72,15.52,35.55,30.93,53.37,46.34,23.2,20.06,46.42,40.08,69.65,60.1,11,9.48,22,18.95,33,28.42,8.85,7.62,17.43,16.12,27.54,22.08,12.02,7.08,26.42,11.39,40.45,10.33,17.31-1.32,32.27-9.15,45.15-20.53,6.13-5.42,12.25-10.86,18.37-16.29,13.38-11.86,26.76-23.73,40.14-35.59l49.08-43.51c15.06-13.35,30.12-26.7,45.17-40.05,9.48-8.4,18.96-16.81,28.43-25.21,1.31-1.16,2.62-2.33,3.93-3.49,4.92-4.36,4.78-13.33,0-17.72-5.25-4.82-12.47-4.65-17.72,0Z"/>
    <g>
      <path class="cls-2" d="M252.29,241.68c-20.19,0-35.96-10.83-41.8-15.48l-.49-.42-2.67-2.3C142.35,167.57,32.15,72.61,22.98,63.82c-6.8-6.52-9.02-14.76-6.24-23.2,1.64-4.98,4.54-8.59,5.66-9.86,7.52-11.41,20.11-18.21,33.79-18.21H448.41c13.69,0,26.31,6.82,33.83,18.27,3.08,3.92,4.08,9.61,2.99,16.9-.73,4.89-2.19,8.9-2.25,9.06l-.5,1.36-186.56,165.4c-13.58,12.04-28.26,18.14-43.62,18.14Zm-34.6-24.39c4.95,3.93,18.1,12.93,34.6,12.93,12.48,0,24.59-5.13,36.01-15.26l.19-.17L472.65,51.54c1.44-4.67,2.36-11.5,.53-13.71l-.22-.26-.18-.29c-5.37-8.32-14.48-13.29-24.37-13.29H56.18c-9.92,0-19.05,4.99-24.42,13.36l-.32,.5-.35,.36c-.19,.2-2.5,2.79-3.56,6.26-1.26,4.14-.19,7.66,3.38,11.08,6.56,6.29,73.63,64.37,184.02,159.36l2.74,2.36s.02,.02,.03,.02Z"/>
      <g>
        <path class="cls-3" d="M252.29,229.15c-1.61-.01-3.22-.07-4.82-.2-.75-.06-1.6-.28-2.34-.25,3.29-.14,1.47,.2,.29-.01-3.12-.55-6.2-1.35-9.2-2.36-1.3-.44-2.58-.93-3.86-1.43-2.36-.91,2.82,1.28,.57,.23-.58-.27-1.16-.53-1.74-.8-2.28-1.09-4.51-2.3-6.67-3.61-1.52-.92-3-1.89-4.45-2.91-.65-.46-1.29-.94-1.93-1.41-1.46-1.07,2.78,2.25,1.46,1.13-.24-.21-.49-.4-.73-.61-2.76-2.33-5.48-4.71-8.21-7.07-15.54-13.38-31.08-26.76-46.61-40.14-31.14-26.84-62.28-53.69-93.33-80.63-10.15-8.81-20.31-17.62-30.4-26.52-2.53-2.23-5.08-4.46-7.56-6.75-.3-.28-.61-.56-.91-.85-.57-.55-1.09-1.15-1.65-1.71-1.91-1.9,1.47,2.38,.08,.14-.39-.63-.81-1.22-1.17-1.87-.24-.42-.46-.84-.67-1.28,.77,1.91,.91,2.26,.44,1.03-.34-1.03-.44-2.43-.91-3.37l.25,1.95c-.05-.46-.08-.93-.1-1.39-.03-.71,.03-1.41,.02-2.11,0-2.59-.73,3.03-.08,.48,.18-.72,.32-1.45,.53-2.16,.08-.27,.89-2.07,.78-2.25-.77,1.78-.88,2.08-.32,.89,.21-.43,.44-.85,.67-1.27,.6-1.07,1.29-2.08,1.99-3.09l.3-.4c-1.51,1.92-1.9,2.44-1.17,1.54l.22-.26c.77-.88,1.49-1.79,2.15-2.76,.36-.51,.96-1.16,1.21-1.73l-1.11,1.42c.29-.36,.58-.72,.88-1.08,1.04-1.23,2.16-2.4,3.34-3.5,.5-.47,1.03-.9,1.54-1.36,.68-.61,1.69-.91-.93,.68,1.16-.7,2.22-1.59,3.39-2.3s2.37-1.35,3.6-1.94c1.16-.55,2.58-.47-.49,.18,.86-.18,1.73-.65,2.58-.92,1.31-.42,2.64-.77,3.99-1.05,.66-.14,1.4-.18,2.04-.37-3.32,.99-1.8,.22-.57,.11s2.37-.14,3.56-.15c.23,0,.47,0,.7,0,3.66,0,7.32,0,10.98,0,17.94,0,35.88,0,53.82,0,27.28,0,54.55,0,81.83,0,30.35,0,60.7,0,91.05,0,27.58,0,55.17,0,82.75,0h56.56c4.29,0,8.58,0,12.87,0,1.01,0,2.01-.01,3.02,.02,.7,.02,1.4,.07,2.1,.13,1.24,.11,2.73,.88-.56-.11,1.3,.39,2.73,.5,4.06,.85s2.62,.81,3.92,1.25c2.42,.81-2.76-1.33-.47-.22,.82,.4,1.64,.78,2.45,1.22,1.2,.65,2.37,1.36,3.5,2.13,.56,.38,1.09,.84,1.67,1.2-2.99-1.84-1.18-.9-.41-.23,1.04,.91,2.04,1.87,2.98,2.87,.32,.34,.63,.68,.93,1.03,.31,.35,.61,.71,.9,1.07,.81,1.02,.59,.73-.67-.87,.47,1.12,1.56,2.12,2.19,3.17,.3,.5,.51,1.07,.82,1.57-1.73-2.8-.79-1.97-.43-.69,.17,.59,.2,1.33,.43,1.89l-.25-2c.05,.46,.09,.93,.12,1.39,.09,1.52-.02,3.01-.09,4.53-.13,2.87,.61-2.96,.02-.02-.16,.8-.3,1.61-.47,2.41-.29,1.29-.62,2.58-1,3.84-.34,1.12-.73,2.21-1.14,3.31l3.22-5.53c-7.09,6.29-14.18,12.57-21.28,18.86-16.59,14.71-33.19,29.42-49.78,44.13l-57.66,51.12c-15,13.3-30.01,26.6-45.01,39.91-3.73,3.31-7.46,6.62-11.19,9.92-.54,.48-1.08,.96-1.63,1.44s-1.08,.95-1.63,1.41-1.09,.9-1.63,1.35c-2.16,1.82,1.7-1.23,.23-.17-2.4,1.74-4.8,3.42-7.36,4.92-2.22,1.31-4.51,2.43-6.84,3.52-1.59,.75,3.01-1.15,.57-.24-.58,.22-1.16,.45-1.74,.66-1.27,.46-2.56,.88-3.87,1.25-1.17,.34-2.36,.63-3.55,.9-.71,.16-1.43,.3-2.14,.43-.38,.07-2.81,.42-.49,.12s-.12,0-.5,.04c-.6,.06-1.21,.11-1.81,.15-1.33,.09-2.67,.13-4.01,.14-6.55,.04-12.83,5.73-12.53,12.53s5.51,12.57,12.53,12.53c19.94-.13,37.76-8.85,52.5-21.84,1.6-1.41,3.18-2.82,4.78-4.23,9.85-8.74,19.71-17.47,29.56-26.21,15.16-13.44,30.32-26.88,45.47-40.32,16.35-14.49,32.7-28.99,49.04-43.48,13.26-11.75,26.52-23.51,39.78-35.26,5.89-5.22,12.24-10.2,17.8-15.78,3.82-3.83,5.36-11.27,6.14-16.46,.9-6.04,1.29-12.19-.51-18.15-1.63-5.38-4.74-9.63-8.25-13.93C478.88,6.64,463.43,.09,448.22,.01c-5.66-.03-11.32,0-16.97,0-13.21,0-26.41,0-39.62,0-18.39,0-36.79,0-55.18,0-21.42,0-42.85,0-64.27,0S227.96,.01,205.85,.01c-20.43,0-40.87,0-61.3,0-16.62,0-33.24,0-49.86,0-10.44,0-20.87,0-31.31,0-2.18,0-4.36,0-6.54,0-11.36,.02-22.8,3.34-31.89,10.27-4.78,3.64-8.62,7.55-12.17,12.42-.12,.17-.84,1.06-.81,1.15l.69-.86c.77-.95,.92-1.15,.47-.61,.22,.36-2.34,2.98-2.75,3.53-1.19,1.61-2.25,3.3-3.12,5.1-5.3,10.98-5.88,23.88,.97,34.42,3.88,5.98,9.3,10.39,14.58,15.05,16.37,14.43,32.9,28.7,49.4,42.98,23.33,20.2,46.7,40.35,70.07,60.5,11.61,10,23.22,20.01,34.83,30,9.55,8.23,18.84,17.03,28.98,24.53,13.22,9.77,29.75,15.6,46.21,15.72,6.56,.05,12.83-5.8,12.53-12.53-.31-6.83-5.5-12.48-12.53-12.53Z"/>
        <path class="cls-3" d="M208.84,226.15c13.21,10.42,29.67,17.76,46.85,16.47,16.12-1.21,29.95-8.61,41.91-19.18,6.04-5.34,12.07-10.7,18.1-16.05,12.8-11.35,25.6-22.7,38.4-34.04,15.71-13.93,31.42-27.85,47.13-41.78,14.8-13.12,29.6-26.25,44.41-39.37,9.94-8.81,19.89-17.63,29.83-26.44,1.92-1.7,3.94-3.34,5.78-5.13,.08-.08,.18-.15,.26-.23,2.55-2.62,3.58-6.17,4.23-9.67,.53-2.87,1.04-5.89,.98-8.83s-.57-5.61-1.69-8.26c-.8-1.9-1.83-3.15-3.1-4.81-.34-.45,2.26,3.17,1.67,2.12-.33-.57-.76-1.13-1.15-1.65-3.43-4.65-7.25-8.49-12.16-11.61-9.57-6.09-19.88-6.23-30.57-6.23s-20.89,0-31.34,0c-16.12,0-32.23,0-48.35,0-19.66,0-39.32,0-58.98,0-21.22,0-42.44,0-63.66,0-20.82,0-41.63,0-62.45,0-18.29,0-36.57,0-54.86,0-13.67,0-27.33,0-41,0-7.08,0-14.17,0-21.25,0s-14.4,1.47-21.02,4.8c-4.2,2.12-8.19,5.21-11.29,8.75-1.64,1.88-3.51,3.9-4.66,6.15-.66,1.28,2.49-3.11,1.25-1.67-.97,1.12-1.88,2.32-2.74,3.52-3.1,4.34-5.19,10.14-4.83,15.51,.41,6.21,3.13,11.68,7.62,15.99,6.91,6.64,14.38,12.78,21.6,19.08,16.68,14.54,33.41,29.02,50.15,43.49,25.35,21.91,50.73,43.79,76.12,65.66,12.93,11.14,25.68,22.54,38.82,33.42,2.63,2.17,5.33,3.67,8.86,3.67,3.07,0,6.74-1.36,8.86-3.67,4.24-4.61,5.39-13.26,0-17.72-8.92-7.38-17.57-15.12-26.35-22.67-10.21-8.8-20.43-17.59-30.64-26.39-17.38-14.98-34.75-29.96-52.11-44.96-13.2-11.41-26.4-22.82-39.58-34.26-8.73-7.58-17.46-15.17-26.16-22.79-3.97-3.48-8.04-6.9-11.85-10.56-.13-.12-.25-.24-.38-.37-.11-.11-.77-.65-.77-.81,0-.2,1.53,2.32,.89,1.17-.27-.49-1.31-2.53-.43-.46s.08-.23-.01-.82l.45,3.33c-.08-.82-.07-1.61,.01-2.43l-.45,3.33c.12-.73,.71-1.91,.65-2.6-.85,1.9-.99,2.27-.44,1.12l.3-.56c.36-.64,.8-1.22,1.18-1.85-2.18,3.64-1.81,2.13-1.11,1.45,1.05-1.03,1.89-2.26,2.73-3.47,.4-.57,.91-1.18,1.23-1.79-1.29,1.64-1.53,1.96-.71,.97,.21-.25,.44-.5,.66-.74,.52-.57,1.06-1.12,1.63-1.64,.33-.31,2.6-2.15,.74-.71s.48-.29,.86-.53c.64-.41,1.3-.79,1.97-1.15,1.01-.54,3.22-1.05-.34,.02,.73-.22,1.43-.55,2.15-.78,1.58-.5,3.18-.85,4.82-1.09l-3.33,.45c4.5-.57,9.2-.27,13.73-.27H433.29c4.89,0,9.78-.01,14.67,0,1.49,0,2.97,.09,4.44,.27l-3.33-.45c2.42,.36,4.65,1.06,6.95,1.86-3.91-1.36-.25,0,.79,.61,.47,.28,.93,.56,1.38,.86,1.1,.74,1.54,1.77-.44-.41,.72,.79,1.67,1.43,2.43,2.2,.46,.47,.9,.97,1.34,1.46,1.49,1.65-1.63-2.44-.32-.44,.89,1.37,1.89,2.65,2.9,3.93-.58-.74-2.19-2.71-2.45-4.24,.08,.46,.25,.92,.33,1.38l-.45-3.33c.22,1.83,.09,3.66-.14,5.48l.45-3.33c-.29,1.97-.71,3.9-1.28,5.81l3.22-5.53c-6.76,5.99-13.52,11.98-20.27,17.97-15.96,14.15-31.93,28.31-47.89,42.46-18.65,16.54-37.3,33.07-55.95,49.61-14.97,13.27-29.94,26.54-44.91,39.81-4.12,3.66-8.25,7.31-12.37,10.97-.83,.74-1.66,1.48-2.5,2.21-.56,.5-1.12,.99-1.7,1.48-.41,.35-.84,.69-1.25,1.04-2.19,1.84,2.29-1.65,.01,.01-1.05,.77-2.1,1.52-3.18,2.24-2.28,1.51-4.65,2.87-7.11,4.05-.64,.31-1.3,.65-1.96,.89,.15-.06,2.95-1.13,1.02-.46-1.1,.38-2.19,.8-3.31,1.14-2.41,.74-4.87,1.26-7.36,1.62l3.33-.45c-4.04,.52-8.07,.51-12.12,.02l3.33,.45c-3.27-.45-6.48-1.18-9.61-2.22-1.25-.41-2.45-.95-3.69-1.37,3.87,1.3,1.07,.44,.13,0-.54-.26-1.08-.52-1.61-.79-2.07-1.05-4.08-2.21-6.03-3.47-.86-.56-1.71-1.14-2.54-1.73-.31-.22-.61-.45-.92-.68-1.96-1.43,2.55,2,1.23,.95-2.72-2.14-5.25-3.67-8.86-3.67-3.07,0-6.74,1.36-8.86,3.67-4.15,4.52-5.49,13.38,0,17.72Z"/>
      </g>
    </g>
  </g>
  <g>
    <rect class="cls-1" x="385.93" y="165.41" width="11.46" height="208.9" transform="translate(-72.12 375.39) rotate(-47.39)"/>
    <path class="cls-3" d="M473.51,335.94c-1.37-1.26-2.74-2.52-4.11-3.79l-11.2-10.3-16.56-15.24c-6.73-6.2-13.47-12.39-20.2-18.59-7.35-6.76-14.69-13.51-22.04-20.27s-14.89-13.7-22.33-20.55l-20.82-19.16c-5.87-5.4-11.73-10.79-17.6-16.19-4.22-3.88-8.43-7.76-12.65-11.63-1.99-1.83-3.96-3.68-5.97-5.49-.09-.08-.17-.16-.26-.24v17.72c2.59-2.81,5.17-5.62,7.76-8.43h-17.72c1.37,1.26,2.74,2.52,4.11,3.79l11.2,10.3c5.52,5.08,11.04,10.16,16.56,15.24l20.2,18.59c7.35,6.76,14.69,13.51,22.04,20.27s14.89,13.7,22.33,20.55c6.94,6.39,13.88,12.77,20.82,19.16,5.87,5.4,11.73,10.79,17.6,16.19l12.65,11.63c1.99,1.83,3.96,3.68,5.97,5.49,.09,.08,.17,.16,.26,.24v-17.72c-2.59,2.81-5.17,5.62-7.76,8.43-2.23,2.43-3.67,5.51-3.67,8.86,0,3.07,1.36,6.74,3.67,8.86s5.52,3.82,8.86,3.67,6.6-1.21,8.86-3.67c2.59-2.81,5.17-5.62,7.76-8.43,2.13-2.32,3.82-5.61,3.67-8.86s-1.21-6.6-3.67-8.86c-1.37-1.26-2.74-2.52-4.11-3.79-3.73-3.43-7.47-6.87-11.2-10.3-5.52-5.08-11.04-10.16-16.56-15.24-6.73-6.2-13.47-12.39-20.2-18.59-7.35-6.76-14.69-13.51-22.04-20.27s-14.89-13.7-22.33-20.55c-6.94-6.39-13.88-12.77-20.82-19.16-5.87-5.4-11.73-10.79-17.6-16.19l-12.65-11.63c-1.99-1.83-3.97-3.67-5.97-5.49-.09-.08-.17-.16-.26-.24-2.32-2.13-5.61-3.82-8.86-3.67s-6.6,1.21-8.86,3.67c-2.59,2.81-5.17,5.62-7.76,8.43-2.13,2.32-3.82,5.61-3.67,8.86s1.21,6.6,3.67,8.86c1.37,1.26,2.74,2.52,4.11,3.79l11.2,10.3,16.56,15.24c6.73,6.2,13.47,12.39,20.2,18.59,7.35,6.76,14.69,13.51,22.04,20.27,7.44,6.85,14.89,13.7,22.33,20.55l20.82,19.16c5.87,5.4,11.73,10.79,17.6,16.19,4.22,3.88,8.43,7.76,12.65,11.63,1.99,1.83,3.97,3.67,5.97,5.49,.09,.08,.17,.16,.26,.24,2.43,2.23,5.51,3.67,8.86,3.67,3.07,0,6.74-1.36,8.86-3.67s3.82-5.52,3.67-8.86-1.21-6.6-3.67-8.86Z"/>
  </g>
  <g>
    <rect class="cls-1" x="6.75" y="264.14" width="208.9" height="11.46" transform="translate(-153.35 146.55) rotate(-42.61)"/>
    <path class="cls-3" d="M47.07,335.94c-2.59-2.81-5.17-5.62-7.76-8.43v17.72c1.37-1.26,2.74-2.52,4.11-3.79l11.2-10.3c5.52-5.08,11.04-10.16,16.56-15.24,6.73-6.2,13.47-12.39,20.2-18.59l22.04-20.27,22.33-20.55c6.94-6.39,13.88-12.77,20.82-19.16,5.87-5.4,11.73-10.79,17.6-16.19,4.22-3.88,8.43-7.76,12.65-11.63,1.99-1.83,4-3.64,5.97-5.49,.09-.08,.17-.16,.26-.24h-17.72c2.59,2.81,5.17,5.62,7.76,8.43v-17.72c-1.37,1.26-2.74,2.52-4.11,3.79-3.73,3.43-7.47,6.87-11.2,10.3-5.52,5.08-11.04,10.16-16.56,15.24-6.73,6.2-13.47,12.39-20.2,18.59-7.35,6.76-14.69,13.51-22.04,20.27s-14.89,13.7-22.33,20.55c-6.94,6.39-13.88,12.77-20.82,19.16-5.87,5.4-11.73,10.79-17.6,16.19-4.22,3.88-8.43,7.76-12.65,11.63-1.99,1.83-4,3.64-5.97,5.49-.09,.08-.17,.16-.26,.24-2.3,2.12-3.67,5.78-3.67,8.86s1.36,6.74,3.67,8.86,5.52,3.82,8.86,3.67,6.33-1.34,8.86-3.67c1.37-1.26,2.74-2.52,4.11-3.79,3.73-3.43,7.47-6.87,11.2-10.3l16.56-15.24c6.73-6.2,13.47-12.39,20.2-18.59,7.35-6.76,14.69-13.51,22.04-20.27,7.44-6.85,14.89-13.7,22.33-20.55l20.82-19.16c5.87-5.4,11.73-10.79,17.6-16.19l12.65-11.63c1.99-1.83,4-3.64,5.97-5.49,.09-.08,.17-.16,.26-.24,2.21-2.03,3.8-5.87,3.67-8.86-.15-3.4-1.34-6.33-3.67-8.86-2.59-2.81-5.17-5.62-7.76-8.43-2.03-2.21-5.87-3.8-8.86-3.67-3.4,.15-6.33,1.34-8.86,3.67-1.37,1.26-2.74,2.52-4.11,3.79-3.73,3.43-7.47,6.87-11.2,10.3-5.52,5.08-11.04,10.16-16.56,15.24-6.73,6.2-13.47,12.39-20.2,18.59-7.35,6.76-14.69,13.51-22.04,20.27l-22.33,20.55c-6.94,6.39-13.88,12.77-20.82,19.16-5.87,5.4-11.73,10.79-17.6,16.19l-12.65,11.63c-1.99,1.83-4,3.64-5.97,5.49-.09,.08-.17,.16-.26,.24-2.21,2.03-3.8,5.87-3.67,8.86,.15,3.4,1.34,6.33,3.67,8.86,2.59,2.81,5.17,5.62,7.76,8.43,2.12,2.3,5.78,3.67,8.86,3.67s6.74-1.36,8.86-3.67,3.82-5.52,3.67-8.86-1.34-6.33-3.67-8.86Z"/>
  </g>
</svg>