<?xml version="1.0" encoding="UTF-8"?>
<svg id="_レイヤー_1" data-name="レイヤー 1" xmlns="http://www.w3.org/2000/svg" viewBox="0 0 284.33 339.78">
  <defs>
    <style>
      .cls-1 {
        fill: #352dff;
      }
    </style>
  </defs>
  <path class="cls-1" d="M205.71,158.39c17.5-16.76,28.47-40.29,28.47-66.38C234.18,41.28,192.9,0,142.17,0S50.15,41.28,50.15,92.01c0,26.09,10.97,49.62,28.47,66.38C33.01,173.6,0,216.61,0,267.27v55.75c0,9.26,7.5,16.76,16.76,16.76h250.81c9.26,0,16.76-7.5,16.76-16.76v-55.75c0-50.66-33.01-93.68-78.62-108.88Zm-63.54-124.87c32.25,0,58.49,26.24,58.49,58.49s-26.24,58.49-58.49,58.49-58.5-26.24-58.5-58.49,26.24-58.49,58.5-58.49Zm108.64,272.74H33.52v-38.99c0-44.83,36.47-81.3,81.29-81.3h54.7c44.83,0,81.29,36.47,81.29,81.3v38.99Z"/>
</svg>